<?xml version="1.0" standalone="no"?>
<!DOCTYPE svg PUBLIC "-//W3C//DTD SVG 20010904//EN"
 "http://www.w3.org/TR/2001/REC-SVG-20010904/DTD/svg10.dtd">
<svg version="1.0" xmlns="http://www.w3.org/2000/svg"
 width="56.000000pt" height="56.000000pt" viewBox="0 0 56.000000 56.000000"
 preserveAspectRatio="xMidYMid meet">

<g transform="translate(0.000000,56.000000) scale(0.100000,-0.100000)"
fill="#000000" stroke="none">
<path d="M146 494 c-13 -13 -16 -46 -16 -210 0 -116 4 -203 10 -215 10 -17 22
-19 140 -19 118 0 130 2 140 19 13 26 13 396 0 422 -10 17 -22 19 -135 19 -99
0 -127 -3 -139 -16z m100 -15 c4 -7 20 -8 43 -4 20 3 54 7 76 8 l40 2 3 -157
3 -158 -131 0 -130 0 0 153 c0 85 3 157 7 160 11 11 81 8 89 -4z m162 -366
l-3 -38 -125 0 -125 0 -3 38 -3 37 131 0 131 0 -3 -37z"/>
<path d="M270 120 c0 -5 5 -10 10 -10 6 0 10 5 10 10 0 6 -4 10 -10 10 -5 0
-10 -4 -10 -10z"/>
</g>
</svg>
