<?xml version="1.0" standalone="no"?>
<!DOCTYPE svg PUBLIC "-//W3C//DTD SVG 20010904//EN"
 "http://www.w3.org/TR/2001/REC-SVG-20010904/DTD/svg10.dtd">
<svg version="1.0" xmlns="http://www.w3.org/2000/svg"
 width="24.000000pt" height="24.000000pt" viewBox="0 0 24.000000 24.000000"
 preserveAspectRatio="xMidYMid meet">

<g transform="translate(0.000000,24.000000) scale(0.100000,-0.100000)"
fill="#000000" stroke="none">
<path d="M10 223 c0 -3 7 -14 16 -24 14 -16 14 -20 -7 -48 -21 -29 -21 -31 -5
-56 34 -51 108 -79 146 -55 10 6 21 3 37 -12 13 -12 26 -18 30 -14 4 3 -40 54
-97 111 -97 97 -120 116 -120 98z m115 -141 c-22 -5 -45 16 -45 41 0 19 2 18
31 -9 24 -23 27 -30 14 -32z"/>
<path d="M86 201 c-6 -10 20 -35 47 -44 9 -4 21 -17 26 -29 5 -13 18 -31 29
-41 20 -18 21 -18 37 7 16 24 16 28 1 51 -32 48 -123 85 -140 56z"/>
</g>
</svg>
